# xmcd
#
# Track frame offsets: 
#        150
#        18298
#        35634
#        51703
#        73650
#        93462
#        108319
#        122270
#        140129
#        154583
#        176736
#        194714
#        210764
#        230665
#        250764
#        266254
#        286878
#        302774
#        319222
#        333748
#
# Disc length: 4679 seconds
#
# Revision: 2
# Processed by: cddbd v1.5.2PL0 Copyright (c) Steve Scherf et al.
# Submitted via: ExactAudioCopyFreeDBPlugin 1.0
#
DISCID=29124514
DTITLE=Various Artist - Suomipoppia 10
DYEAR=2007
DGENRE=Pop
TTITLE0=Irina - Miksi Hänkin On Täällä
TTITLE1=Uniklupi - Vnus
TTITLE2=Ari Koivunen - On The Top Of The World
TTITLE3=PMMP - Joku Raja
TTITLE4=Jonna Tervomaa - Läpikulkumatkalla
TTITLE5=Hanoi Rocks - Fashion
TTITLE6=Apulanta - Viisaus Ei Asu Meissä
TTITLE7=Yö - Satukirjan Sankari
TTITLE8=Sunrise Avenue - Diamonds
TTITLE9=Kristian Meurman - Lapin Kesä
TTITLE10=Aleksi Ojala - Koditon Mies
TTITLE11=Hanna Pakarinen - Leave Me Alone
TTITLE12=Viikate - Ei Enkeleitä
TTITLE13=Sir Elwoodin Hiljaiset Värit - Rouva Fortuna
TTITLE14=Bloodpit - Wise Men Don't Cry
TTITLE15=Liekki - Marie
TTITLE16=Kalle Ahola - Nämä Päivät Ovat Meitä Varten
TTITLE17=Juha Tapio - Sitä Jotakin
TTITLE18=Tea - Si-Si-Sinä Mi-Mi-Minä
TTITLE19=Jukka Poika - Hän Haluu Huussin
EXTD=
EXTT0=
EXTT1=
EXTT2=
EXTT3=
EXTT4=
EXTT5=
EXTT6=
EXTT7=
EXTT8=
EXTT9=
EXTT10=
EXTT11=
EXTT12=
EXTT13=
EXTT14=
EXTT15=
EXTT16=
EXTT17=
EXTT18=
EXTT19=
PLAYORDER=
